{
	"asset":{
		"generator":"Khronos glTF Blender I/O v4.5.47",
		"version":"2.0"
	},
	"extensionsUsed":[
		"KHR_lights_punctual"
	],
	"extensionsRequired":[
		"KHR_lights_punctual"
	],
	"extensions":{
		"KHR_lights_punctual":{
			"lights":[
				{
					"color":[
						1,
						1,
						1
					],
					"intensity":39.78873577297384,
					"type":"point",
					"name":"Point"
				}
			]
		}
	},
	"scene":0,
	"scenes":[
		{
			"name":"Scene",
			"nodes":[
				0,
				1,
				2,
				3,
				4,
				5,
				6,
				7
			]
		}
	],
	"nodes":[
		{
			"camera":0,
			"name":"Camera-noimp",
			"rotation":[
				-0.15301916003227234,
				-0.2052716165781021,
				-0.03251350671052933,
				0.9661219120025635
			],
			"translation":[
				-4.6065826416015625,
				3.2264888286590576,
				7.107695579528809
			]
		},
		{
			"extensions":{
				"KHR_lights_punctual":{
					"light":0
				}
			},
			"name":"Point-noimp",
			"rotation":[
				-0.7071068286895752,
				0,
				0,
				0.7071068286895752
			],
			"translation":[
				-2.4377732276916504,
				2.8942017555236816,
				-2.4231491088867188
			]
		},
		{
			"mesh":0,
			"name":"6_sided_flat"
		},
		{
			"mesh":1,
			"name":"6_sided_flat.001"
		},
		{
			"mesh":2,
			"name":"6_sided_flat.002"
		},
		{
			"mesh":3,
			"name":"6_sided_flat.003"
		},
		{
			"mesh":4,
			"name":"6_sided_flat.004"
		},
		{
			"mesh":5,
			"name":"6_sided_flat.005"
		}
	],
	"cameras":[
		{
			"name":"Camera",
			"perspective":{
				"aspectRatio":1.3333333333333333,
				"yfov":0.5274237051253257,
				"zfar":1000,
				"znear":0.10000000149011612
			},
			"type":"perspective"
		}
	],
	"meshes":[
		{
			"name":"Solid.012",
			"primitives":[
				{
					"attributes":{
						"POSITION":0,
						"NORMAL":1
					},
					"indices":2
				}
			]
		},
		{
			"name":"Solid.005",
			"primitives":[
				{
					"attributes":{
						"POSITION":3,
						"NORMAL":4
					},
					"indices":5
				}
			]
		},
		{
			"name":"Solid.006",
			"primitives":[
				{
					"attributes":{
						"POSITION":6,
						"NORMAL":7
					},
					"indices":8
				}
			]
		},
		{
			"name":"Solid.007",
			"primitives":[
				{
					"attributes":{
						"POSITION":9,
						"NORMAL":10
					},
					"indices":11
				}
			]
		},
		{
			"name":"Solid.008",
			"primitives":[
				{
					"attributes":{
						"POSITION":12,
						"NORMAL":13
					},
					"indices":14
				}
			]
		},
		{
			"name":"Solid.009",
			"primitives":[
				{
					"attributes":{
						"POSITION":15,
						"NORMAL":16
					},
					"indices":17
				}
			]
		}
	],
	"accessors":[
		{
			"bufferView":0,
			"componentType":5126,
			"count":18,
			"max":[
				0.10000000149011612,
				1.1739532947540283,
				0.08660254627466202
			],
			"min":[
				-0.05000000819563866,
				0.17395323514938354,
				-0.08660253882408142
			],
			"type":"VEC3"
		},
		{
			"bufferView":1,
			"componentType":5126,
			"count":18,
			"type":"VEC3"
		},
		{
			"bufferView":2,
			"componentType":5123,
			"count":24,
			"type":"SCALAR"
		},
		{
			"bufferView":3,
			"componentType":5126,
			"count":18,
			"max":[
				0.10000000149011612,
				0.0866025760769844,
				-0.17395323514938354
			],
			"min":[
				-0.05000000819563866,
				-0.08660253882408142,
				-1.1739532947540283
			],
			"type":"VEC3"
		},
		{
			"bufferView":4,
			"componentType":5126,
			"count":18,
			"type":"VEC3"
		},
		{
			"bufferView":5,
			"componentType":5123,
			"count":24,
			"type":"SCALAR"
		},
		{
			"bufferView":6,
			"componentType":5126,
			"count":18,
			"max":[
				1.1739532947540283,
				0.05000004544854164,
				0.08660254627466202
			],
			"min":[
				0.17395323514938354,
				-0.10000000149011612,
				-0.08660253882408142
			],
			"type":"VEC3"
		},
		{
			"bufferView":7,
			"componentType":5126,
			"count":18,
			"type":"VEC3"
		},
		{
			"bufferView":8,
			"componentType":5123,
			"count":24,
			"type":"SCALAR"
		},
		{
			"bufferView":9,
			"componentType":5126,
			"count":18,
			"max":[
				-0.17395323514938354,
				0.10000003129243851,
				0.08660254627466202
			],
			"min":[
				-1.1739532947540283,
				-0.05000000819563866,
				-0.08660253882408142
			],
			"type":"VEC3"
		},
		{
			"bufferView":10,
			"componentType":5126,
			"count":18,
			"type":"VEC3"
		},
		{
			"bufferView":11,
			"componentType":5123,
			"count":24,
			"type":"SCALAR"
		},
		{
			"bufferView":12,
			"componentType":5126,
			"count":18,
			"max":[
				0.10000000149011612,
				0.08660256862640381,
				1.1739532947540283
			],
			"min":[
				-0.05000000819563866,
				-0.08660254627466202,
				0.17395323514938354
			],
			"type":"VEC3"
		},
		{
			"bufferView":13,
			"componentType":5126,
			"count":18,
			"type":"VEC3"
		},
		{
			"bufferView":14,
			"componentType":5123,
			"count":24,
			"type":"SCALAR"
		},
		{
			"bufferView":15,
			"componentType":5126,
			"count":18,
			"max":[
				0.05000000819563866,
				-0.17395323514938354,
				0.08660254627466202
			],
			"min":[
				-0.10000009089708328,
				-1.1739532947540283,
				-0.08660253882408142
			],
			"type":"VEC3"
		},
		{
			"bufferView":16,
			"componentType":5126,
			"count":18,
			"type":"VEC3"
		},
		{
			"bufferView":17,
			"componentType":5123,
			"count":24,
			"type":"SCALAR"
		}
	],
	"bufferViews":[
		{
			"buffer":0,
			"byteLength":216,
			"byteOffset":0,
			"target":34962
		},
		{
			"buffer":0,
			"byteLength":216,
			"byteOffset":216,
			"target":34962
		},
		{
			"buffer":0,
			"byteLength":48,
			"byteOffset":432,
			"target":34963
		},
		{
			"buffer":0,
			"byteLength":216,
			"byteOffset":480,
			"target":34962
		},
		{
			"buffer":0,
			"byteLength":216,
			"byteOffset":696,
			"target":34962
		},
		{
			"buffer":0,
			"byteLength":48,
			"byteOffset":912,
			"target":34963
		},
		{
			"buffer":0,
			"byteLength":216,
			"byteOffset":960,
			"target":34962
		},
		{
			"buffer":0,
			"byteLength":216,
			"byteOffset":1176,
			"target":34962
		},
		{
			"buffer":0,
			"byteLength":48,
			"byteOffset":1392,
			"target":34963
		},
		{
			"buffer":0,
			"byteLength":216,
			"byteOffset":1440,
			"target":34962
		},
		{
			"buffer":0,
			"byteLength":216,
			"byteOffset":1656,
			"target":34962
		},
		{
			"buffer":0,
			"byteLength":48,
			"byteOffset":1872,
			"target":34963
		},
		{
			"buffer":0,
			"byteLength":216,
			"byteOffset":1920,
			"target":34962
		},
		{
			"buffer":0,
			"byteLength":216,
			"byteOffset":2136,
			"target":34962
		},
		{
			"buffer":0,
			"byteLength":48,
			"byteOffset":2352,
			"target":34963
		},
		{
			"buffer":0,
			"byteLength":216,
			"byteOffset":2400,
			"target":34962
		},
		{
			"buffer":0,
			"byteLength":216,
			"byteOffset":2616,
			"target":34962
		},
		{
			"buffer":0,
			"byteLength":48,
			"byteOffset":2832,
			"target":34963
		}
	],
	"buffers":[
		{
			"byteLength":2880,
			"uri":"six_sided_face_objects-2f7ddee1111b8a841e0a72cd55f25339.bin"
		}
	]
}
