{
	"asset":{
		"generator":"Khronos glTF Blender I/O v4.5.47",
		"version":"2.0"
	},
	"extensionsUsed":[
		"KHR_lights_punctual"
	],
	"extensionsRequired":[
		"KHR_lights_punctual"
	],
	"extensions":{
		"KHR_lights_punctual":{
			"lights":[
				{
					"color":[
						1,
						1,
						1
					],
					"intensity":39.78873577297384,
					"type":"point",
					"name":"Point"
				}
			]
		}
	},
	"scene":0,
	"scenes":[
		{
			"name":"Scene",
			"nodes":[
				0,
				1,
				2,
				3,
				4,
				5,
				6,
				7,
				8,
				9,
				10,
				11
			]
		}
	],
	"nodes":[
		{
			"camera":0,
			"name":"Camera-noimp",
			"rotation":[
				-0.15301916003227234,
				-0.2052716165781021,
				-0.03251350671052933,
				0.9661219120025635
			],
			"translation":[
				-4.6065826416015625,
				3.2264888286590576,
				7.107695579528809
			]
		},
		{
			"extensions":{
				"KHR_lights_punctual":{
					"light":0
				}
			},
			"name":"Point-noimp",
			"rotation":[
				-0.7071068286895752,
				0,
				0,
				0.7071068286895752
			],
			"translation":[
				-2.4377732276916504,
				2.8942017555236816,
				-2.4231491088867188
			]
		},
		{
			"extras":{
				"shape":"1.0"
			},
			"mesh":0,
			"name":"10_sided_tens_flat"
		},
		{
			"extras":{
				"shape":"1.0"
			},
			"mesh":1,
			"name":"10_sided_tens_flat.001"
		},
		{
			"extras":{
				"shape":"1.0"
			},
			"mesh":2,
			"name":"10_sided_tens_flat.002"
		},
		{
			"extras":{
				"shape":"1.0"
			},
			"mesh":3,
			"name":"10_sided_tens_flat.003"
		},
		{
			"extras":{
				"shape":"1.0"
			},
			"mesh":4,
			"name":"10_sided_tens_flat.004"
		},
		{
			"extras":{
				"shape":"1.0"
			},
			"mesh":5,
			"name":"10_sided_tens_flat.005"
		},
		{
			"extras":{
				"shape":"1.0"
			},
			"mesh":6,
			"name":"10_sided_tens_flat.006"
		},
		{
			"extras":{
				"shape":"1.0"
			},
			"mesh":7,
			"name":"10_sided_tens_flat.007"
		},
		{
			"extras":{
				"shape":"1.0"
			},
			"mesh":8,
			"name":"10_sided_tens_flat.008"
		},
		{
			"extras":{
				"shape":"1.0"
			},
			"mesh":9,
			"name":"10_sided_tens_flat.009"
		}
	],
	"cameras":[
		{
			"name":"Camera",
			"perspective":{
				"aspectRatio":1.3333333333333333,
				"yfov":0.5274237051253257,
				"zfar":1000,
				"znear":0.10000000149011612
			},
			"type":"perspective"
		}
	],
	"meshes":[
		{
			"name":"Cone.005",
			"primitives":[
				{
					"attributes":{
						"POSITION":0,
						"NORMAL":1
					},
					"indices":2
				}
			]
		},
		{
			"name":"Cone.013",
			"primitives":[
				{
					"attributes":{
						"POSITION":3,
						"NORMAL":4
					},
					"indices":5
				}
			]
		},
		{
			"name":"Cone.014",
			"primitives":[
				{
					"attributes":{
						"POSITION":6,
						"NORMAL":7
					},
					"indices":5
				}
			]
		},
		{
			"name":"Cone.015",
			"primitives":[
				{
					"attributes":{
						"POSITION":8,
						"NORMAL":9
					},
					"indices":5
				}
			]
		},
		{
			"name":"Cone.016",
			"primitives":[
				{
					"attributes":{
						"POSITION":10,
						"NORMAL":11
					},
					"indices":5
				}
			]
		},
		{
			"name":"Cone.017",
			"primitives":[
				{
					"attributes":{
						"POSITION":12,
						"NORMAL":13
					},
					"indices":5
				}
			]
		},
		{
			"name":"Cone.018",
			"primitives":[
				{
					"attributes":{
						"POSITION":14,
						"NORMAL":15
					},
					"indices":5
				}
			]
		},
		{
			"name":"Cone.019",
			"primitives":[
				{
					"attributes":{
						"POSITION":16,
						"NORMAL":17
					},
					"indices":5
				}
			]
		},
		{
			"name":"Cone.020",
			"primitives":[
				{
					"attributes":{
						"POSITION":18,
						"NORMAL":19
					},
					"indices":5
				}
			]
		},
		{
			"name":"Cone.021",
			"primitives":[
				{
					"attributes":{
						"POSITION":20,
						"NORMAL":21
					},
					"indices":5
				}
			]
		}
	],
	"accessors":[
		{
			"bufferView":0,
			"componentType":5126,
			"count":6,
			"max":[
				-0.1341281533241272,
				-0.014995098114013672,
				0.3352161645889282
			],
			"min":[
				-0.9316897392272949,
				-0.8418997526168823,
				-0.03103277087211609
			],
			"type":"VEC3"
		},
		{
			"bufferView":1,
			"componentType":5126,
			"count":6,
			"type":"VEC3"
		},
		{
			"bufferView":2,
			"componentType":5123,
			"count":24,
			"type":"SCALAR"
		},
		{
			"bufferView":3,
			"componentType":5126,
			"count":6,
			"max":[
				0.09999997913837433,
				-0.021007776260375977,
				0.9836642146110535
			],
			"min":[
				-0.05000033602118492,
				-0.8505889177322388,
				0.1540829837322235
			],
			"type":"VEC3"
		},
		{
			"bufferView":4,
			"componentType":5126,
			"count":6,
			"type":"VEC3"
		},
		{
			"bufferView":5,
			"componentType":5123,
			"count":24,
			"type":"SCALAR"
		},
		{
			"bufferView":6,
			"componentType":5126,
			"count":6,
			"max":[
				0.9479337334632874,
				-0.02969685196876526,
				0.38261598348617554
			],
			"min":[
				0.1503724455833435,
				-0.856601893901825,
				0.016367003321647644
			],
			"type":"VEC3"
		},
		{
			"bufferView":7,
			"componentType":5126,
			"count":6,
			"type":"VEC3"
		},
		{
			"bufferView":8,
			"componentType":5126,
			"count":6,
			"max":[
				0.5919802188873291,
				-0.011921793222427368,
				-0.09302002191543579
			],
			"min":[
				0.035749584436416626,
				-0.8309146165847778,
				-0.7970079183578491
			],
			"type":"VEC3"
		},
		{
			"bufferView":9,
			"componentType":5126,
			"count":6,
			"type":"VEC3"
		},
		{
			"bufferView":10,
			"componentType":5126,
			"count":6,
			"max":[
				0.10000023990869522,
				0.8505890369415283,
				-0.1540830135345459
			],
			"min":[
				-0.049999985843896866,
				0.021007776260375977,
				-0.9836642742156982
			],
			"type":"VEC3"
		},
		{
			"bufferView":11,
			"componentType":5126,
			"count":6,
			"type":"VEC3"
		},
		{
			"bufferView":12,
			"componentType":5126,
			"count":6,
			"max":[
				-0.13127416372299194,
				0.8566020131111145,
				0.021946698427200317
			],
			"min":[
				-0.9214884042739868,
				0.02969682216644287,
				-0.36492201685905457
			],
			"type":"VEC3"
		},
		{
			"bufferView":13,
			"componentType":5126,
			"count":6,
			"type":"VEC3"
		},
		{
			"bufferView":14,
			"componentType":5126,
			"count":6,
			"max":[
				-0.03668126463890076,
				0.8309145569801331,
				0.8092960119247437
			],
			"min":[
				-0.5991911292076111,
				0.011921733617782593,
				0.09723308682441711
			],
			"type":"VEC3"
		},
		{
			"bufferView":15,
			"componentType":5126,
			"count":6,
			"type":"VEC3"
		},
		{
			"bufferView":16,
			"componentType":5126,
			"count":6,
			"max":[
				0.9507881999015808,
				0.8418997526168823,
				0.013338789343833923
			],
			"min":[
				0.16057336330413818,
				0.014995068311691284,
				-0.37352991104125977
			],
			"type":"VEC3"
		},
		{
			"bufferView":17,
			"componentType":5126,
			"count":6,
			"type":"VEC3"
		},
		{
			"bufferView":18,
			"componentType":5126,
			"count":6,
			"max":[
				0.6320700645446777,
				0.8596750497817993,
				0.8232237696647644
			],
			"min":[
				0.06955981254577637,
				0.04068228602409363,
				0.11116096377372742
			],
			"type":"VEC3"
		},
		{
			"bufferView":19,
			"componentType":5126,
			"count":6,
			"type":"VEC3"
		},
		{
			"bufferView":20,
			"componentType":5126,
			"count":6,
			"max":[
				-0.07677057385444641,
				-0.04068225622177124,
				-0.12344905734062195
			],
			"min":[
				-0.6330018043518066,
				-0.8596750497817993,
				-0.8274369239807129
			],
			"type":"VEC3"
		},
		{
			"bufferView":21,
			"componentType":5126,
			"count":6,
			"type":"VEC3"
		}
	],
	"bufferViews":[
		{
			"buffer":0,
			"byteLength":72,
			"byteOffset":0,
			"target":34962
		},
		{
			"buffer":0,
			"byteLength":72,
			"byteOffset":72,
			"target":34962
		},
		{
			"buffer":0,
			"byteLength":48,
			"byteOffset":144,
			"target":34963
		},
		{
			"buffer":0,
			"byteLength":72,
			"byteOffset":192,
			"target":34962
		},
		{
			"buffer":0,
			"byteLength":72,
			"byteOffset":264,
			"target":34962
		},
		{
			"buffer":0,
			"byteLength":48,
			"byteOffset":336,
			"target":34963
		},
		{
			"buffer":0,
			"byteLength":72,
			"byteOffset":384,
			"target":34962
		},
		{
			"buffer":0,
			"byteLength":72,
			"byteOffset":456,
			"target":34962
		},
		{
			"buffer":0,
			"byteLength":72,
			"byteOffset":528,
			"target":34962
		},
		{
			"buffer":0,
			"byteLength":72,
			"byteOffset":600,
			"target":34962
		},
		{
			"buffer":0,
			"byteLength":72,
			"byteOffset":672,
			"target":34962
		},
		{
			"buffer":0,
			"byteLength":72,
			"byteOffset":744,
			"target":34962
		},
		{
			"buffer":0,
			"byteLength":72,
			"byteOffset":816,
			"target":34962
		},
		{
			"buffer":0,
			"byteLength":72,
			"byteOffset":888,
			"target":34962
		},
		{
			"buffer":0,
			"byteLength":72,
			"byteOffset":960,
			"target":34962
		},
		{
			"buffer":0,
			"byteLength":72,
			"byteOffset":1032,
			"target":34962
		},
		{
			"buffer":0,
			"byteLength":72,
			"byteOffset":1104,
			"target":34962
		},
		{
			"buffer":0,
			"byteLength":72,
			"byteOffset":1176,
			"target":34962
		},
		{
			"buffer":0,
			"byteLength":72,
			"byteOffset":1248,
			"target":34962
		},
		{
			"buffer":0,
			"byteLength":72,
			"byteOffset":1320,
			"target":34962
		},
		{
			"buffer":0,
			"byteLength":72,
			"byteOffset":1392,
			"target":34962
		},
		{
			"buffer":0,
			"byteLength":72,
			"byteOffset":1464,
			"target":34962
		}
	],
	"buffers":[
		{
			"byteLength":1536,
			"uri":"ten_sided_tens_face_objects-f241be7d5b5c71c7dfe93fbe63e3632a.bin"
		}
	]
}
