{
	"asset":{
		"generator":"Khronos glTF Blender I/O v4.5.47",
		"version":"2.0"
	},
	"extensionsUsed":[
		"KHR_lights_punctual"
	],
	"extensionsRequired":[
		"KHR_lights_punctual"
	],
	"extensions":{
		"KHR_lights_punctual":{
			"lights":[
				{
					"color":[
						1,
						1,
						1
					],
					"intensity":39.78873577297384,
					"type":"point",
					"name":"Point"
				},
				{
					"color":[
						1,
						1,
						1
					],
					"intensity":39.78873577297384,
					"type":"point",
					"name":"Point.001"
				},
				{
					"color":[
						1,
						1,
						1
					],
					"intensity":39.78873577297384,
					"type":"point",
					"name":"Point.002"
				}
			]
		}
	},
	"scene":0,
	"scenes":[
		{
			"name":"Scene",
			"nodes":[
				0,
				1,
				2,
				3,
				4,
				5,
				6
			]
		}
	],
	"nodes":[
		{
			"mesh":0,
			"name":"tray-colonly",
			"translation":[
				0,
				0.0027437685057520866,
				0
			]
		},
		{
			"mesh":1,
			"name":"tray_no_bevel-noimp"
		},
		{
			"mesh":2,
			"name":"tray"
		},
		{
			"camera":0,
			"name":"Camera-noimp",
			"rotation":[
				-0.2684720754623413,
				-0.16038964688777924,
				-0.04538730904459953,
				0.9487559795379639
			],
			"translation":[
				-0.14517003297805786,
				0.2616976201534271,
				0.41709405183792114
			]
		},
		{
			"extensions":{
				"KHR_lights_punctual":{
					"light":0
				}
			},
			"name":"Point-noimp",
			"rotation":[
				-0.7071068286895752,
				0,
				0,
				0.7071068286895752
			],
			"translation":[
				-1.836317539215088,
				4.103146553039551,
				-5.212648391723633
			]
		},
		{
			"extensions":{
				"KHR_lights_punctual":{
					"light":1
				}
			},
			"name":"Point-noimp.001",
			"rotation":[
				-0.7071068286895752,
				0,
				0,
				0.7071068286895752
			],
			"translation":[
				6.130256652832031,
				3.9396724700927734,
				-0.9715752601623535
			]
		},
		{
			"extensions":{
				"KHR_lights_punctual":{
					"light":2
				}
			},
			"name":"Point-noimp.002",
			"rotation":[
				-0.7071068286895752,
				0,
				0,
				0.7071068286895752
			],
			"translation":[
				-0.905095100402832,
				1.4238474369049072,
				5.3334736824035645
			]
		}
	],
	"cameras":[
		{
			"name":"Camera",
			"perspective":{
				"aspectRatio":1.3333333333333333,
				"yfov":0.5274237051253257,
				"zfar":1000,
				"znear":0.10000000149011612
			},
			"type":"perspective"
		}
	],
	"materials":[
		{
			"doubleSided":true,
			"name":"Material",
			"pbrMetallicRoughness":{
				"baseColorTexture":{
					"index":0
				},
				"metallicFactor":0,
				"roughnessFactor":0.5
			}
		}
	],
	"meshes":[
		{
			"name":"Cube.001",
			"primitives":[
				{
					"attributes":{
						"POSITION":0,
						"NORMAL":1,
						"TEXCOORD_0":2,
						"TANGENT":3
					},
					"indices":4
				}
			]
		},
		{
			"name":"Cube.002",
			"primitives":[
				{
					"attributes":{
						"POSITION":5,
						"NORMAL":6,
						"TEXCOORD_0":7,
						"TANGENT":8
					},
					"indices":9,
					"material":0
				}
			]
		},
		{
			"name":"Cube.003",
			"primitives":[
				{
					"attributes":{
						"POSITION":10,
						"NORMAL":11,
						"TEXCOORD_0":12,
						"TANGENT":13
					},
					"indices":14,
					"material":0
				}
			]
		}
	],
	"textures":[
		{
			"sampler":0,
			"source":0
		}
	],
	"images":[
		{
			"mimeType":"image/png",
			"name":"height_map_normal.png",
			"uri":"../../textures/height_map_normal.png"
		}
	],
	"accessors":[
		{
			"bufferView":0,
			"componentType":5126,
			"count":32,
			"max":[
				2.447509527206421,
				4.985103607177734,
				2.447509527206421
			],
			"min":[
				-2.447509527206421,
				0.04701972007751465,
				-2.447509527206421
			],
			"type":"VEC3"
		},
		{
			"bufferView":1,
			"componentType":5126,
			"count":32,
			"type":"VEC3"
		},
		{
			"bufferView":2,
			"componentType":5126,
			"count":32,
			"type":"VEC2"
		},
		{
			"bufferView":3,
			"componentType":5126,
			"count":32,
			"type":"VEC4"
		},
		{
			"bufferView":4,
			"componentType":5123,
			"count":60,
			"type":"SCALAR"
		},
		{
			"bufferView":5,
			"componentType":5126,
			"count":48,
			"max":[
				10,
				2,
				10
			],
			"min":[
				-10,
				0,
				-10
			],
			"type":"VEC3"
		},
		{
			"bufferView":6,
			"componentType":5126,
			"count":48,
			"type":"VEC3"
		},
		{
			"bufferView":7,
			"componentType":5126,
			"count":48,
			"type":"VEC2"
		},
		{
			"bufferView":8,
			"componentType":5126,
			"count":48,
			"type":"VEC4"
		},
		{
			"bufferView":9,
			"componentType":5123,
			"count":84,
			"type":"SCALAR"
		},
		{
			"bufferView":10,
			"componentType":5126,
			"count":304,
			"max":[
				2.700000047683716,
				0.5400000214576721,
				2.700000047683716
			],
			"min":[
				-2.700000047683716,
				0,
				-2.700000047683716
			],
			"type":"VEC3"
		},
		{
			"bufferView":11,
			"componentType":5126,
			"count":304,
			"type":"VEC3"
		},
		{
			"bufferView":12,
			"componentType":5126,
			"count":304,
			"type":"VEC2"
		},
		{
			"bufferView":13,
			"componentType":5126,
			"count":304,
			"type":"VEC4"
		},
		{
			"bufferView":14,
			"componentType":5123,
			"count":1140,
			"type":"SCALAR"
		}
	],
	"bufferViews":[
		{
			"buffer":0,
			"byteLength":384,
			"byteOffset":0,
			"target":34962
		},
		{
			"buffer":0,
			"byteLength":384,
			"byteOffset":384,
			"target":34962
		},
		{
			"buffer":0,
			"byteLength":256,
			"byteOffset":768,
			"target":34962
		},
		{
			"buffer":0,
			"byteLength":512,
			"byteOffset":1024,
			"target":34962
		},
		{
			"buffer":0,
			"byteLength":120,
			"byteOffset":1536,
			"target":34963
		},
		{
			"buffer":0,
			"byteLength":576,
			"byteOffset":1656,
			"target":34962
		},
		{
			"buffer":0,
			"byteLength":576,
			"byteOffset":2232,
			"target":34962
		},
		{
			"buffer":0,
			"byteLength":384,
			"byteOffset":2808,
			"target":34962
		},
		{
			"buffer":0,
			"byteLength":768,
			"byteOffset":3192,
			"target":34962
		},
		{
			"buffer":0,
			"byteLength":168,
			"byteOffset":3960,
			"target":34963
		},
		{
			"buffer":0,
			"byteLength":3648,
			"byteOffset":4128,
			"target":34962
		},
		{
			"buffer":0,
			"byteLength":3648,
			"byteOffset":7776,
			"target":34962
		},
		{
			"buffer":0,
			"byteLength":2432,
			"byteOffset":11424,
			"target":34962
		},
		{
			"buffer":0,
			"byteLength":4864,
			"byteOffset":13856,
			"target":34962
		},
		{
			"buffer":0,
			"byteLength":2280,
			"byteOffset":18720,
			"target":34963
		}
	],
	"samplers":[
		{
			"magFilter":9729,
			"minFilter":9987
		}
	],
	"buffers":[
		{
			"byteLength":21000,
			"uri":"tray-ac1310d66b5eb836ffef3b13f96ccb96.bin"
		}
	]
}
