{
	"asset":{
		"generator":"Khronos glTF Blender I/O v4.5.47",
		"version":"2.0"
	},
	"extensionsUsed":[
		"KHR_lights_punctual"
	],
	"extensionsRequired":[
		"KHR_lights_punctual"
	],
	"extensions":{
		"KHR_lights_punctual":{
			"lights":[
				{
					"color":[
						1,
						1,
						1
					],
					"intensity":39.78873577297384,
					"type":"point",
					"name":"Point"
				}
			]
		}
	},
	"scene":0,
	"scenes":[
		{
			"name":"Scene",
			"nodes":[
				0,
				1,
				2,
				3,
				4,
				5,
				6,
				7,
				8,
				9,
				10,
				11,
				12,
				13
			]
		}
	],
	"nodes":[
		{
			"camera":0,
			"name":"Camera-noimp",
			"rotation":[
				-0.1327781081199646,
				-0.6802728772163391,
				-0.1273111253976822,
				0.7095003128051758
			],
			"translation":[
				-8.474303245544434,
				3.6807589530944824,
				-0.6259432435035706
			]
		},
		{
			"extensions":{
				"KHR_lights_punctual":{
					"light":0
				}
			},
			"name":"Point-noimp",
			"rotation":[
				-0.7071068286895752,
				0,
				0,
				0.7071068286895752
			],
			"translation":[
				-2.4377732276916504,
				2.8942017555236816,
				-2.4231491088867188
			]
		},
		{
			"mesh":0,
			"name":"12_sided_flat"
		},
		{
			"mesh":1,
			"name":"12_sided_flat.001"
		},
		{
			"mesh":2,
			"name":"12_sided_flat.002"
		},
		{
			"mesh":3,
			"name":"12_sided_flat.003"
		},
		{
			"mesh":4,
			"name":"12_sided_flat.004"
		},
		{
			"mesh":5,
			"name":"12_sided_flat.005"
		},
		{
			"mesh":6,
			"name":"12_sided_flat.006"
		},
		{
			"mesh":7,
			"name":"12_sided_flat.007"
		},
		{
			"mesh":8,
			"name":"12_sided_flat.008"
		},
		{
			"mesh":9,
			"name":"12_sided_flat.009"
		},
		{
			"mesh":10,
			"name":"12_sided_flat.010"
		},
		{
			"mesh":11,
			"name":"12_sided_flat.011"
		}
	],
	"cameras":[
		{
			"name":"Camera",
			"perspective":{
				"aspectRatio":1.3333333333333333,
				"yfov":0.5274237051253257,
				"zfar":1000,
				"znear":0.10000000149011612
			},
			"type":"perspective"
		}
	],
	"meshes":[
		{
			"name":"Solid.014",
			"primitives":[
				{
					"attributes":{
						"POSITION":0,
						"NORMAL":1
					},
					"indices":2
				}
			]
		},
		{
			"name":"Solid.022",
			"primitives":[
				{
					"attributes":{
						"POSITION":3,
						"NORMAL":4
					},
					"indices":5
				}
			]
		},
		{
			"name":"Solid.023",
			"primitives":[
				{
					"attributes":{
						"POSITION":6,
						"NORMAL":7
					},
					"indices":5
				}
			]
		},
		{
			"name":"Solid.024",
			"primitives":[
				{
					"attributes":{
						"POSITION":8,
						"NORMAL":9
					},
					"indices":5
				}
			]
		},
		{
			"name":"Solid.025",
			"primitives":[
				{
					"attributes":{
						"POSITION":10,
						"NORMAL":11
					},
					"indices":5
				}
			]
		},
		{
			"name":"Solid.026",
			"primitives":[
				{
					"attributes":{
						"POSITION":12,
						"NORMAL":13
					},
					"indices":5
				}
			]
		},
		{
			"name":"Solid.027",
			"primitives":[
				{
					"attributes":{
						"POSITION":14,
						"NORMAL":15
					},
					"indices":5
				}
			]
		},
		{
			"name":"Solid.028",
			"primitives":[
				{
					"attributes":{
						"POSITION":16,
						"NORMAL":17
					},
					"indices":5
				}
			]
		},
		{
			"name":"Solid.029",
			"primitives":[
				{
					"attributes":{
						"POSITION":18,
						"NORMAL":19
					},
					"indices":5
				}
			]
		},
		{
			"name":"Solid.030",
			"primitives":[
				{
					"attributes":{
						"POSITION":20,
						"NORMAL":21
					},
					"indices":5
				}
			]
		},
		{
			"name":"Solid.031",
			"primitives":[
				{
					"attributes":{
						"POSITION":22,
						"NORMAL":23
					},
					"indices":5
				}
			]
		},
		{
			"name":"Solid.032",
			"primitives":[
				{
					"attributes":{
						"POSITION":24,
						"NORMAL":25
					},
					"indices":5
				}
			]
		}
	],
	"accessors":[
		{
			"bufferView":0,
			"componentType":5126,
			"count":6,
			"max":[
				0.10000000149011612,
				0.7445511817932129,
				-0.1893305778503418
			],
			"min":[
				-0.05000000819563866,
				0.0714830756187439,
				-1.1310406923294067
			],
			"type":"VEC3"
		},
		{
			"bufferView":1,
			"componentType":5126,
			"count":6,
			"type":"VEC3"
		},
		{
			"bufferView":2,
			"componentType":5123,
			"count":24,
			"type":"SCALAR"
		},
		{
			"bufferView":3,
			"componentType":5126,
			"count":6,
			"max":[
				1.1131504774093628,
				0.08806219696998596,
				-0.10043025016784668
			],
			"min":[
				0.18231076002120972,
				-0.08506511896848679,
				-0.7559095621109009
			],
			"type":"VEC3"
		},
		{
			"bufferView":4,
			"componentType":5126,
			"count":6,
			"type":"VEC3"
		},
		{
			"bufferView":5,
			"componentType":5123,
			"count":24,
			"type":"SCALAR"
		},
		{
			"bufferView":6,
			"componentType":5126,
			"count":6,
			"max":[
				0.7559478282928467,
				1.111797571182251,
				0.08660254627466202
			],
			"min":[
				0.10261905193328857,
				0.1822870969772339,
				-0.08660253882408142
			],
			"type":"VEC3"
		},
		{
			"bufferView":7,
			"componentType":5126,
			"count":6,
			"type":"VEC3"
		},
		{
			"bufferView":8,
			"componentType":5126,
			"count":6,
			"max":[
				0.10000000894069672,
				-0.0714830756187439,
				-0.1893305480480194
			],
			"min":[
				-0.05000000819563866,
				-0.7445513606071472,
				-1.1310405731201172
			],
			"type":"VEC3"
		},
		{
			"bufferView":9,
			"componentType":5126,
			"count":6,
			"type":"VEC3"
		},
		{
			"bufferView":10,
			"componentType":5126,
			"count":6,
			"max":[
				1.1131504774093628,
				0.08806221187114716,
				0.7559096813201904
			],
			"min":[
				0.18231076002120972,
				-0.08506520837545395,
				0.10043025016784668
			],
			"type":"VEC3"
		},
		{
			"bufferView":11,
			"componentType":5126,
			"count":6,
			"type":"VEC3"
		},
		{
			"bufferView":12,
			"componentType":5126,
			"count":6,
			"max":[
				-0.06008654832839966,
				1.1380841732025146,
				0.08660255372524261
			],
			"min":[
				-0.713415265083313,
				0.20857366919517517,
				-0.08660254627466202
			],
			"type":"VEC3"
		},
		{
			"bufferView":13,
			"componentType":5126,
			"count":6,
			"type":"VEC3"
		},
		{
			"bufferView":14,
			"componentType":5126,
			"count":6,
			"max":[
				-0.20722094178199768,
				0.0850650891661644,
				-0.060124754905700684
			],
			"min":[
				-1.1380605697631836,
				-0.0880623310804367,
				-0.7156041860580444
			],
			"type":"VEC3"
		},
		{
			"bufferView":15,
			"componentType":5126,
			"count":6,
			"type":"VEC3"
		},
		{
			"bufferView":16,
			"componentType":5126,
			"count":6,
			"max":[
				0.10000000149011612,
				0.7445511221885681,
				1.1310406923294067
			],
			"min":[
				-0.05000000819563866,
				0.07148304581642151,
				0.1893305778503418
			],
			"type":"VEC3"
		},
		{
			"bufferView":17,
			"componentType":5126,
			"count":6,
			"type":"VEC3"
		},
		{
			"bufferView":18,
			"componentType":5126,
			"count":6,
			"max":[
				0.7134151458740234,
				-0.20857369899749756,
				0.08660254627466202
			],
			"min":[
				0.06008648872375488,
				-1.1380842924118042,
				-0.08660253882408142
			],
			"type":"VEC3"
		},
		{
			"bufferView":19,
			"componentType":5126,
			"count":6,
			"type":"VEC3"
		},
		{
			"bufferView":20,
			"componentType":5126,
			"count":6,
			"max":[
				-0.10261905193328857,
				-0.18228712677955627,
				0.08660256117582321
			],
			"min":[
				-0.7559477090835571,
				-1.1117976903915405,
				-0.08660253882408142
			],
			"type":"VEC3"
		},
		{
			"bufferView":21,
			"componentType":5126,
			"count":6,
			"type":"VEC3"
		},
		{
			"bufferView":22,
			"componentType":5126,
			"count":6,
			"max":[
				-0.2072209119796753,
				0.0850650891661644,
				0.7156040668487549
			],
			"min":[
				-1.1380605697631836,
				-0.08806249499320984,
				0.060124725103378296
			],
			"type":"VEC3"
		},
		{
			"bufferView":23,
			"componentType":5126,
			"count":6,
			"type":"VEC3"
		},
		{
			"bufferView":24,
			"componentType":5126,
			"count":6,
			"max":[
				0.10000000149011612,
				-0.0714830756187439,
				1.1310405731201172
			],
			"min":[
				-0.050000015646219254,
				-0.7445513606071472,
				0.1893305480480194
			],
			"type":"VEC3"
		},
		{
			"bufferView":25,
			"componentType":5126,
			"count":6,
			"type":"VEC3"
		}
	],
	"bufferViews":[
		{
			"buffer":0,
			"byteLength":72,
			"byteOffset":0,
			"target":34962
		},
		{
			"buffer":0,
			"byteLength":72,
			"byteOffset":72,
			"target":34962
		},
		{
			"buffer":0,
			"byteLength":48,
			"byteOffset":144,
			"target":34963
		},
		{
			"buffer":0,
			"byteLength":72,
			"byteOffset":192,
			"target":34962
		},
		{
			"buffer":0,
			"byteLength":72,
			"byteOffset":264,
			"target":34962
		},
		{
			"buffer":0,
			"byteLength":48,
			"byteOffset":336,
			"target":34963
		},
		{
			"buffer":0,
			"byteLength":72,
			"byteOffset":384,
			"target":34962
		},
		{
			"buffer":0,
			"byteLength":72,
			"byteOffset":456,
			"target":34962
		},
		{
			"buffer":0,
			"byteLength":72,
			"byteOffset":528,
			"target":34962
		},
		{
			"buffer":0,
			"byteLength":72,
			"byteOffset":600,
			"target":34962
		},
		{
			"buffer":0,
			"byteLength":72,
			"byteOffset":672,
			"target":34962
		},
		{
			"buffer":0,
			"byteLength":72,
			"byteOffset":744,
			"target":34962
		},
		{
			"buffer":0,
			"byteLength":72,
			"byteOffset":816,
			"target":34962
		},
		{
			"buffer":0,
			"byteLength":72,
			"byteOffset":888,
			"target":34962
		},
		{
			"buffer":0,
			"byteLength":72,
			"byteOffset":960,
			"target":34962
		},
		{
			"buffer":0,
			"byteLength":72,
			"byteOffset":1032,
			"target":34962
		},
		{
			"buffer":0,
			"byteLength":72,
			"byteOffset":1104,
			"target":34962
		},
		{
			"buffer":0,
			"byteLength":72,
			"byteOffset":1176,
			"target":34962
		},
		{
			"buffer":0,
			"byteLength":72,
			"byteOffset":1248,
			"target":34962
		},
		{
			"buffer":0,
			"byteLength":72,
			"byteOffset":1320,
			"target":34962
		},
		{
			"buffer":0,
			"byteLength":72,
			"byteOffset":1392,
			"target":34962
		},
		{
			"buffer":0,
			"byteLength":72,
			"byteOffset":1464,
			"target":34962
		},
		{
			"buffer":0,
			"byteLength":72,
			"byteOffset":1536,
			"target":34962
		},
		{
			"buffer":0,
			"byteLength":72,
			"byteOffset":1608,
			"target":34962
		},
		{
			"buffer":0,
			"byteLength":72,
			"byteOffset":1680,
			"target":34962
		},
		{
			"buffer":0,
			"byteLength":72,
			"byteOffset":1752,
			"target":34962
		}
	],
	"buffers":[
		{
			"byteLength":1824,
			"uri":"twelve_sided_face_objects-2da7af16736662f6e10ec860b6e74be5.bin"
		}
	]
}
