{
	"asset":{
		"generator":"Khronos glTF Blender I/O v4.5.47",
		"version":"2.0"
	},
	"extensionsUsed":[
		"KHR_lights_punctual"
	],
	"extensionsRequired":[
		"KHR_lights_punctual"
	],
	"extensions":{
		"KHR_lights_punctual":{
			"lights":[
				{
					"color":[
						1,
						1,
						1
					],
					"intensity":39.78873577297384,
					"type":"point",
					"name":"Point"
				}
			]
		}
	},
	"scene":0,
	"scenes":[
		{
			"name":"Scene",
			"nodes":[
				0,
				1,
				2,
				3,
				4,
				5,
				6,
				7,
				8,
				9,
				10,
				11,
				12,
				13,
				14,
				15,
				16,
				17,
				18,
				19,
				20,
				21
			]
		}
	],
	"nodes":[
		{
			"mesh":0,
			"name":"20_sided_flat"
		},
		{
			"mesh":1,
			"name":"20_sided_flat.001"
		},
		{
			"mesh":2,
			"name":"20_sided_flat.002"
		},
		{
			"mesh":3,
			"name":"20_sided_flat.003"
		},
		{
			"mesh":4,
			"name":"20_sided_flat.004"
		},
		{
			"mesh":5,
			"name":"20_sided_flat.005"
		},
		{
			"mesh":6,
			"name":"20_sided_flat.006"
		},
		{
			"mesh":7,
			"name":"20_sided_flat.007"
		},
		{
			"mesh":8,
			"name":"20_sided_flat.008"
		},
		{
			"mesh":9,
			"name":"20_sided_flat.009"
		},
		{
			"mesh":10,
			"name":"20_sided_flat.010"
		},
		{
			"mesh":11,
			"name":"20_sided_flat.011"
		},
		{
			"mesh":12,
			"name":"20_sided_flat.012"
		},
		{
			"mesh":13,
			"name":"20_sided_flat.013"
		},
		{
			"mesh":14,
			"name":"20_sided_flat.014"
		},
		{
			"mesh":15,
			"name":"20_sided_flat.015"
		},
		{
			"mesh":16,
			"name":"20_sided_flat.016"
		},
		{
			"mesh":17,
			"name":"20_sided_flat.017"
		},
		{
			"mesh":18,
			"name":"20_sided_flat.018"
		},
		{
			"mesh":19,
			"name":"20_sided_flat.019"
		},
		{
			"camera":0,
			"name":"Camera-noimp",
			"rotation":[
				-0.15301916003227234,
				-0.2052716165781021,
				-0.03251350671052933,
				0.9661219120025635
			],
			"translation":[
				-4.6065826416015625,
				3.2264888286590576,
				7.107695579528809
			]
		},
		{
			"extensions":{
				"KHR_lights_punctual":{
					"light":0
				}
			},
			"name":"Point-noimp",
			"rotation":[
				-0.7071068286895752,
				0,
				0,
				0.7071068286895752
			]
		}
	],
	"cameras":[
		{
			"name":"Camera",
			"perspective":{
				"aspectRatio":1.3333333333333333,
				"yfov":0.5274237051253257,
				"zfar":1000,
				"znear":0.10000000149011612
			},
			"type":"perspective"
		}
	],
	"meshes":[
		{
			"name":"Solid.015",
			"primitives":[
				{
					"attributes":{
						"POSITION":0,
						"NORMAL":1
					},
					"indices":2
				}
			]
		},
		{
			"name":"Solid.033",
			"primitives":[
				{
					"attributes":{
						"POSITION":3,
						"NORMAL":4
					},
					"indices":5
				}
			]
		},
		{
			"name":"Solid.034",
			"primitives":[
				{
					"attributes":{
						"POSITION":6,
						"NORMAL":7
					},
					"indices":5
				}
			]
		},
		{
			"name":"Solid.035",
			"primitives":[
				{
					"attributes":{
						"POSITION":8,
						"NORMAL":9
					},
					"indices":5
				}
			]
		},
		{
			"name":"Solid.036",
			"primitives":[
				{
					"attributes":{
						"POSITION":10,
						"NORMAL":11
					},
					"indices":5
				}
			]
		},
		{
			"name":"Solid.037",
			"primitives":[
				{
					"attributes":{
						"POSITION":12,
						"NORMAL":13
					},
					"indices":5
				}
			]
		},
		{
			"name":"Solid.038",
			"primitives":[
				{
					"attributes":{
						"POSITION":14,
						"NORMAL":15
					},
					"indices":5
				}
			]
		},
		{
			"name":"Solid.039",
			"primitives":[
				{
					"attributes":{
						"POSITION":16,
						"NORMAL":17
					},
					"indices":5
				}
			]
		},
		{
			"name":"Solid.040",
			"primitives":[
				{
					"attributes":{
						"POSITION":18,
						"NORMAL":19
					},
					"indices":5
				}
			]
		},
		{
			"name":"Solid.041",
			"primitives":[
				{
					"attributes":{
						"POSITION":20,
						"NORMAL":21
					},
					"indices":5
				}
			]
		},
		{
			"name":"Solid.042",
			"primitives":[
				{
					"attributes":{
						"POSITION":22,
						"NORMAL":23
					},
					"indices":5
				}
			]
		},
		{
			"name":"Solid.043",
			"primitives":[
				{
					"attributes":{
						"POSITION":24,
						"NORMAL":25
					},
					"indices":5
				}
			]
		},
		{
			"name":"Solid.044",
			"primitives":[
				{
					"attributes":{
						"POSITION":26,
						"NORMAL":27
					},
					"indices":5
				}
			]
		},
		{
			"name":"Solid.045",
			"primitives":[
				{
					"attributes":{
						"POSITION":28,
						"NORMAL":29
					},
					"indices":5
				}
			]
		},
		{
			"name":"Solid.046",
			"primitives":[
				{
					"attributes":{
						"POSITION":30,
						"NORMAL":31
					},
					"indices":5
				}
			]
		},
		{
			"name":"Solid.047",
			"primitives":[
				{
					"attributes":{
						"POSITION":32,
						"NORMAL":33
					},
					"indices":5
				}
			]
		},
		{
			"name":"Solid.048",
			"primitives":[
				{
					"attributes":{
						"POSITION":34,
						"NORMAL":35
					},
					"indices":5
				}
			]
		},
		{
			"name":"Solid.049",
			"primitives":[
				{
					"attributes":{
						"POSITION":36,
						"NORMAL":37
					},
					"indices":5
				}
			]
		},
		{
			"name":"Solid.050",
			"primitives":[
				{
					"attributes":{
						"POSITION":38,
						"NORMAL":39
					},
					"indices":5
				}
			]
		},
		{
			"name":"Solid.051",
			"primitives":[
				{
					"attributes":{
						"POSITION":40,
						"NORMAL":41
					},
					"indices":5
				}
			]
		}
	],
	"accessors":[
		{
			"bufferView":0,
			"componentType":5126,
			"count":6,
			"max":[
				-0.14172080159187317,
				-0.14172080159187317,
				0.8556736707687378
			],
			"min":[
				-0.8556736707687378,
				-0.8556734919548035,
				0.14172080159187317
			],
			"type":"VEC3"
		},
		{
			"bufferView":1,
			"componentType":5126,
			"count":6,
			"type":"VEC3"
		},
		{
			"bufferView":2,
			"componentType":5123,
			"count":24,
			"type":"SCALAR"
		},
		{
			"bufferView":3,
			"componentType":5126,
			"count":6,
			"max":[
				-0.12058830261230469,
				0.8345410823822021,
				0.8345410823822021
			],
			"min":[
				-0.8345410823822021,
				0.12058833241462708,
				0.12058833241462708
			],
			"type":"VEC3"
		},
		{
			"bufferView":4,
			"componentType":5126,
			"count":6,
			"type":"VEC3"
		},
		{
			"bufferView":5,
			"componentType":5123,
			"count":24,
			"type":"SCALAR"
		},
		{
			"bufferView":6,
			"componentType":5126,
			"count":6,
			"max":[
				-0.14172083139419556,
				-0.14172080159187317,
				-0.14172080159187317
			],
			"min":[
				-0.8556736707687378,
				-0.8556734919548035,
				-0.8556736707687378
			],
			"type":"VEC3"
		},
		{
			"bufferView":7,
			"componentType":5126,
			"count":6,
			"type":"VEC3"
		},
		{
			"bufferView":8,
			"componentType":5126,
			"count":6,
			"max":[
				-0.12058830261230469,
				0.8345410823822021,
				-0.12058830261230469
			],
			"min":[
				-0.8345410823822021,
				0.12058830261230469,
				-0.8345410823822021
			],
			"type":"VEC3"
		},
		{
			"bufferView":9,
			"componentType":5126,
			"count":6,
			"type":"VEC3"
		},
		{
			"bufferView":10,
			"componentType":5126,
			"count":6,
			"max":[
				0.8345411419868469,
				-0.12058830261230469,
				0.8345412015914917
			],
			"min":[
				0.12058830261230469,
				-0.8345409631729126,
				0.12058830261230469
			],
			"type":"VEC3"
		},
		{
			"bufferView":11,
			"componentType":5126,
			"count":6,
			"type":"VEC3"
		},
		{
			"bufferView":12,
			"componentType":5126,
			"count":6,
			"max":[
				0.855673611164093,
				0.855673611164093,
				0.855673611164093
			],
			"min":[
				0.14172080159187317,
				0.14172080159187317,
				0.14172080159187317
			],
			"type":"VEC3"
		},
		{
			"bufferView":13,
			"componentType":5126,
			"count":6,
			"type":"VEC3"
		},
		{
			"bufferView":14,
			"componentType":5126,
			"count":6,
			"max":[
				0.8345412015914917,
				-0.12058830261230469,
				-0.12058830261230469
			],
			"min":[
				0.12058830261230469,
				-0.8345409631729126,
				-0.8345412015914917
			],
			"type":"VEC3"
		},
		{
			"bufferView":15,
			"componentType":5126,
			"count":6,
			"type":"VEC3"
		},
		{
			"bufferView":16,
			"componentType":5126,
			"count":6,
			"max":[
				0.855673611164093,
				0.8556735515594482,
				-0.14172080159187317
			],
			"min":[
				0.14172080159187317,
				0.14172080159187317,
				-0.8556735515594482
			],
			"type":"VEC3"
		},
		{
			"bufferView":17,
			"componentType":5126,
			"count":6,
			"type":"VEC3"
		},
		{
			"bufferView":18,
			"componentType":5126,
			"count":6,
			"max":[
				-0.03600269556045532,
				0.06306058168411255,
				1.2902320623397827
			],
			"min":[
				-0.5525940656661987,
				-0.09874282777309418,
				0.29503321647644043
			],
			"type":"VEC3"
		},
		{
			"bufferView":19,
			"componentType":5126,
			"count":6,
			"type":"VEC3"
		},
		{
			"bufferView":20,
			"componentType":5126,
			"count":6,
			"max":[
				0.5673604607582092,
				0.09874281287193298,
				1.284591794013977
			],
			"min":[
				0.05076906085014343,
				-0.06306061148643494,
				0.28939294815063477
			],
			"type":"VEC3"
		},
		{
			"bufferView":21,
			"componentType":5126,
			"count":6,
			"type":"VEC3"
		},
		{
			"bufferView":22,
			"componentType":5126,
			"count":6,
			"max":[
				-0.03600269556045532,
				0.06306059658527374,
				-0.29503321647644043
			],
			"min":[
				-0.5525940656661987,
				-0.09874282777309418,
				-1.2902320623397827
			],
			"type":"VEC3"
		},
		{
			"bufferView":23,
			"componentType":5126,
			"count":6,
			"type":"VEC3"
		},
		{
			"bufferView":24,
			"componentType":5126,
			"count":6,
			"max":[
				0.5673604607582092,
				0.09874281287193298,
				-0.28939294815063477
			],
			"min":[
				0.05076906085014343,
				-0.06306059658527374,
				-1.284591794013977
			],
			"type":"VEC3"
		},
		{
			"bufferView":25,
			"componentType":5126,
			"count":6,
			"type":"VEC3"
		},
		{
			"bufferView":26,
			"componentType":5126,
			"count":6,
			"max":[
				-0.30488520860671997,
				-0.029853224754333496,
				0.08660254627466202
			],
			"min":[
				-1.2925808429718018,
				-0.526801347732544,
				-0.08660253882408142
			],
			"type":"VEC3"
		},
		{
			"bufferView":27,
			"componentType":5126,
			"count":6,
			"type":"VEC3"
		},
		{
			"bufferView":28,
			"componentType":5126,
			"count":6,
			"max":[
				-0.28704404830932617,
				0.5735098123550415,
				0.08660254627466202
			],
			"min":[
				-1.2747397422790527,
				0.076561838388443,
				-0.08660253882408142
			],
			"type":"VEC3"
		},
		{
			"bufferView":29,
			"componentType":5126,
			"count":6,
			"type":"VEC3"
		},
		{
			"bufferView":30,
			"componentType":5126,
			"count":6,
			"max":[
				1.2747397422790527,
				-0.076561838388443,
				0.08660254627466202
			],
			"min":[
				0.28704410791397095,
				-0.573509931564331,
				-0.08660253882408142
			],
			"type":"VEC3"
		},
		{
			"bufferView":31,
			"componentType":5126,
			"count":6,
			"type":"VEC3"
		},
		{
			"bufferView":32,
			"componentType":5126,
			"count":6,
			"max":[
				1.2925808429718018,
				0.5268012285232544,
				0.08660254627466202
			],
			"min":[
				0.3048851788043976,
				0.029853224754333496,
				-0.08660253882408142
			],
			"type":"VEC3"
		},
		{
			"bufferView":33,
			"componentType":5126,
			"count":6,
			"type":"VEC3"
		},
		{
			"bufferView":34,
			"componentType":5126,
			"count":6,
			"max":[
				0.10000000149011612,
				-0.291824609041214,
				0.5609942674636841
			],
			"min":[
				-0.05000000819563866,
				-1.2878004312515259,
				0.042368799448013306
			],
			"type":"VEC3"
		},
		{
			"bufferView":35,
			"componentType":5126,
			"count":6,
			"type":"VEC3"
		},
		{
			"bufferView":36,
			"componentType":5126,
			"count":6,
			"max":[
				0.10000000149011612,
				-0.291824609041214,
				-0.042368799448013306
			],
			"min":[
				-0.05000000819563866,
				-1.2878004312515259,
				-0.5609942674636841
			],
			"type":"VEC3"
		},
		{
			"bufferView":37,
			"componentType":5126,
			"count":6,
			"type":"VEC3"
		},
		{
			"bufferView":38,
			"componentType":5126,
			"count":6,
			"max":[
				0.10000000149011612,
				1.2878003120422363,
				0.5609943866729736
			],
			"min":[
				-0.05000000819563866,
				0.2918245792388916,
				0.042368799448013306
			],
			"type":"VEC3"
		},
		{
			"bufferView":39,
			"componentType":5126,
			"count":6,
			"type":"VEC3"
		},
		{
			"bufferView":40,
			"componentType":5126,
			"count":6,
			"max":[
				0.10000000149011612,
				1.2878003120422363,
				-0.042368799448013306
			],
			"min":[
				-0.05000000819563866,
				0.2918245792388916,
				-0.5609943866729736
			],
			"type":"VEC3"
		},
		{
			"bufferView":41,
			"componentType":5126,
			"count":6,
			"type":"VEC3"
		}
	],
	"bufferViews":[
		{
			"buffer":0,
			"byteLength":72,
			"byteOffset":0,
			"target":34962
		},
		{
			"buffer":0,
			"byteLength":72,
			"byteOffset":72,
			"target":34962
		},
		{
			"buffer":0,
			"byteLength":48,
			"byteOffset":144,
			"target":34963
		},
		{
			"buffer":0,
			"byteLength":72,
			"byteOffset":192,
			"target":34962
		},
		{
			"buffer":0,
			"byteLength":72,
			"byteOffset":264,
			"target":34962
		},
		{
			"buffer":0,
			"byteLength":48,
			"byteOffset":336,
			"target":34963
		},
		{
			"buffer":0,
			"byteLength":72,
			"byteOffset":384,
			"target":34962
		},
		{
			"buffer":0,
			"byteLength":72,
			"byteOffset":456,
			"target":34962
		},
		{
			"buffer":0,
			"byteLength":72,
			"byteOffset":528,
			"target":34962
		},
		{
			"buffer":0,
			"byteLength":72,
			"byteOffset":600,
			"target":34962
		},
		{
			"buffer":0,
			"byteLength":72,
			"byteOffset":672,
			"target":34962
		},
		{
			"buffer":0,
			"byteLength":72,
			"byteOffset":744,
			"target":34962
		},
		{
			"buffer":0,
			"byteLength":72,
			"byteOffset":816,
			"target":34962
		},
		{
			"buffer":0,
			"byteLength":72,
			"byteOffset":888,
			"target":34962
		},
		{
			"buffer":0,
			"byteLength":72,
			"byteOffset":960,
			"target":34962
		},
		{
			"buffer":0,
			"byteLength":72,
			"byteOffset":1032,
			"target":34962
		},
		{
			"buffer":0,
			"byteLength":72,
			"byteOffset":1104,
			"target":34962
		},
		{
			"buffer":0,
			"byteLength":72,
			"byteOffset":1176,
			"target":34962
		},
		{
			"buffer":0,
			"byteLength":72,
			"byteOffset":1248,
			"target":34962
		},
		{
			"buffer":0,
			"byteLength":72,
			"byteOffset":1320,
			"target":34962
		},
		{
			"buffer":0,
			"byteLength":72,
			"byteOffset":1392,
			"target":34962
		},
		{
			"buffer":0,
			"byteLength":72,
			"byteOffset":1464,
			"target":34962
		},
		{
			"buffer":0,
			"byteLength":72,
			"byteOffset":1536,
			"target":34962
		},
		{
			"buffer":0,
			"byteLength":72,
			"byteOffset":1608,
			"target":34962
		},
		{
			"buffer":0,
			"byteLength":72,
			"byteOffset":1680,
			"target":34962
		},
		{
			"buffer":0,
			"byteLength":72,
			"byteOffset":1752,
			"target":34962
		},
		{
			"buffer":0,
			"byteLength":72,
			"byteOffset":1824,
			"target":34962
		},
		{
			"buffer":0,
			"byteLength":72,
			"byteOffset":1896,
			"target":34962
		},
		{
			"buffer":0,
			"byteLength":72,
			"byteOffset":1968,
			"target":34962
		},
		{
			"buffer":0,
			"byteLength":72,
			"byteOffset":2040,
			"target":34962
		},
		{
			"buffer":0,
			"byteLength":72,
			"byteOffset":2112,
			"target":34962
		},
		{
			"buffer":0,
			"byteLength":72,
			"byteOffset":2184,
			"target":34962
		},
		{
			"buffer":0,
			"byteLength":72,
			"byteOffset":2256,
			"target":34962
		},
		{
			"buffer":0,
			"byteLength":72,
			"byteOffset":2328,
			"target":34962
		},
		{
			"buffer":0,
			"byteLength":72,
			"byteOffset":2400,
			"target":34962
		},
		{
			"buffer":0,
			"byteLength":72,
			"byteOffset":2472,
			"target":34962
		},
		{
			"buffer":0,
			"byteLength":72,
			"byteOffset":2544,
			"target":34962
		},
		{
			"buffer":0,
			"byteLength":72,
			"byteOffset":2616,
			"target":34962
		},
		{
			"buffer":0,
			"byteLength":72,
			"byteOffset":2688,
			"target":34962
		},
		{
			"buffer":0,
			"byteLength":72,
			"byteOffset":2760,
			"target":34962
		},
		{
			"buffer":0,
			"byteLength":72,
			"byteOffset":2832,
			"target":34962
		},
		{
			"buffer":0,
			"byteLength":72,
			"byteOffset":2904,
			"target":34962
		}
	],
	"buffers":[
		{
			"byteLength":2976,
			"uri":"twenty_sided_face_objects-ab74e892ec84489b345fd013d393fd5e.bin"
		}
	]
}
