{
	"asset":{
		"generator":"Khronos glTF Blender I/O v4.5.47",
		"version":"2.0"
	},
	"extensionsUsed":[
		"KHR_lights_punctual"
	],
	"extensionsRequired":[
		"KHR_lights_punctual"
	],
	"extensions":{
		"KHR_lights_punctual":{
			"lights":[
				{
					"color":[
						1,
						1,
						1
					],
					"intensity":39.78873577297384,
					"type":"point",
					"name":"Point"
				}
			]
		}
	},
	"scene":0,
	"scenes":[
		{
			"name":"Scene",
			"nodes":[
				0,
				1,
				2,
				3,
				4
			]
		}
	],
	"nodes":[
		{
			"mesh":0,
			"name":"velvet_square",
			"translation":[
				0,
				0.0027437685057520866,
				0
			]
		},
		{
			"mesh":1,
			"name":"tray_no_bevel-noimp"
		},
		{
			"mesh":2,
			"name":"velvet_square_col-colonly",
			"translation":[
				0,
				0.0027437685057520866,
				0
			]
		},
		{
			"camera":0,
			"name":"Camera-noimp",
			"rotation":[
				-0.2684720754623413,
				-0.16038964688777924,
				-0.04538730904459953,
				0.9487559795379639
			],
			"translation":[
				-0.14517003297805786,
				0.2616976201534271,
				0.41709405183792114
			]
		},
		{
			"extensions":{
				"KHR_lights_punctual":{
					"light":0
				}
			},
			"name":"Point-noimp",
			"rotation":[
				-0.7071068286895752,
				0,
				0,
				0.7071068286895752
			],
			"translation":[
				-2.4377732276916504,
				2.8942017555236816,
				-2.4231491088867188
			]
		}
	],
	"cameras":[
		{
			"name":"Camera",
			"perspective":{
				"aspectRatio":1.3333333333333333,
				"yfov":0.5274237051253257,
				"zfar":1000,
				"znear":0.10000000149011612
			},
			"type":"perspective"
		}
	],
	"materials":[
		{
			"doubleSided":true,
			"name":"Material",
			"pbrMetallicRoughness":{
				"baseColorTexture":{
					"index":0
				},
				"metallicFactor":0,
				"roughnessFactor":0.5
			}
		}
	],
	"meshes":[
		{
			"name":"Cube.001",
			"primitives":[
				{
					"attributes":{
						"POSITION":0,
						"NORMAL":1,
						"TEXCOORD_0":2,
						"TANGENT":3
					},
					"indices":4
				}
			]
		},
		{
			"name":"Cube.002",
			"primitives":[
				{
					"attributes":{
						"POSITION":5,
						"NORMAL":6,
						"TEXCOORD_0":7,
						"TANGENT":8
					},
					"indices":9,
					"material":0
				}
			]
		},
		{
			"name":"Cube.004",
			"primitives":[
				{
					"attributes":{
						"POSITION":10,
						"NORMAL":11,
						"TEXCOORD_0":12,
						"TANGENT":13
					},
					"indices":4
				}
			]
		}
	],
	"textures":[
		{
			"sampler":0,
			"source":0
		}
	],
	"images":[
		{
			"mimeType":"image/jpeg",
			"name":"wood_0054_color_1k.jpg",
			"uri":"../../textures/wood_0054_color_1k.jpg"
		}
	],
	"accessors":[
		{
			"bufferView":0,
			"componentType":5126,
			"count":8,
			"max":[
				2.447509527206421,
				0.04701972007751465,
				2.447509527206421
			],
			"min":[
				-2.447509527206421,
				0.04701972007751465,
				-2.447509527206421
			],
			"type":"VEC3"
		},
		{
			"bufferView":1,
			"componentType":5126,
			"count":8,
			"type":"VEC3"
		},
		{
			"bufferView":2,
			"componentType":5126,
			"count":8,
			"type":"VEC2"
		},
		{
			"bufferView":3,
			"componentType":5126,
			"count":8,
			"type":"VEC4"
		},
		{
			"bufferView":4,
			"componentType":5123,
			"count":12,
			"type":"SCALAR"
		},
		{
			"bufferView":5,
			"componentType":5126,
			"count":48,
			"max":[
				10,
				2,
				10
			],
			"min":[
				-10,
				0,
				-10
			],
			"type":"VEC3"
		},
		{
			"bufferView":6,
			"componentType":5126,
			"count":48,
			"type":"VEC3"
		},
		{
			"bufferView":7,
			"componentType":5126,
			"count":48,
			"type":"VEC2"
		},
		{
			"bufferView":8,
			"componentType":5126,
			"count":48,
			"type":"VEC4"
		},
		{
			"bufferView":9,
			"componentType":5123,
			"count":84,
			"type":"SCALAR"
		},
		{
			"bufferView":10,
			"componentType":5126,
			"count":8,
			"max":[
				2.447509527206421,
				0.04701972007751465,
				2.447509527206421
			],
			"min":[
				-2.447509527206421,
				0.04701972007751465,
				-2.447509527206421
			],
			"type":"VEC3"
		},
		{
			"bufferView":11,
			"componentType":5126,
			"count":8,
			"type":"VEC3"
		},
		{
			"bufferView":12,
			"componentType":5126,
			"count":8,
			"type":"VEC2"
		},
		{
			"bufferView":13,
			"componentType":5126,
			"count":8,
			"type":"VEC4"
		}
	],
	"bufferViews":[
		{
			"buffer":0,
			"byteLength":96,
			"byteOffset":0,
			"target":34962
		},
		{
			"buffer":0,
			"byteLength":96,
			"byteOffset":96,
			"target":34962
		},
		{
			"buffer":0,
			"byteLength":64,
			"byteOffset":192,
			"target":34962
		},
		{
			"buffer":0,
			"byteLength":128,
			"byteOffset":256,
			"target":34962
		},
		{
			"buffer":0,
			"byteLength":24,
			"byteOffset":384,
			"target":34963
		},
		{
			"buffer":0,
			"byteLength":576,
			"byteOffset":408,
			"target":34962
		},
		{
			"buffer":0,
			"byteLength":576,
			"byteOffset":984,
			"target":34962
		},
		{
			"buffer":0,
			"byteLength":384,
			"byteOffset":1560,
			"target":34962
		},
		{
			"buffer":0,
			"byteLength":768,
			"byteOffset":1944,
			"target":34962
		},
		{
			"buffer":0,
			"byteLength":168,
			"byteOffset":2712,
			"target":34963
		},
		{
			"buffer":0,
			"byteLength":96,
			"byteOffset":2880,
			"target":34962
		},
		{
			"buffer":0,
			"byteLength":96,
			"byteOffset":2976,
			"target":34962
		},
		{
			"buffer":0,
			"byteLength":64,
			"byteOffset":3072,
			"target":34962
		},
		{
			"buffer":0,
			"byteLength":128,
			"byteOffset":3136,
			"target":34962
		}
	],
	"samplers":[
		{
			"magFilter":9729,
			"minFilter":9987
		}
	],
	"buffers":[
		{
			"byteLength":3264,
			"uri":"velvet_square-ab33bc6576717dbc31d9d164158b6605.bin"
		}
	]
}
